#define font_battery_width 8
#define font_battery_height 63
static char font_battery_bits[] = {
  0x3C, 0xCF, 0xF3, 0x3C, 0xFF, 0x7F, 0xFF, 0x01, 0x7E, 0x7E, 0x80, 0xFF, 
  0x7B, 0x7D, 0x00, 0x7F, 0xFF, 0x1D, 0x6E, 0x76, 0x79, 0xFF, 0xBD, 0x76, 
  0x76, 0x89, 0xFF, 0xF8, 0xF7, 0xF7, 0x00, 0xFF, 0xB8, 0x76, 0x76, 0x8E, 
  0xFF, 0x81, 0x76, 0x76, 0x8D, 0xFF, 0x3E, 0xCE, 0xF6, 0xF8, 0xFF, 0x89, 
  0x76, 0x76, 0x89, 0xFF, 0xF9, 0x76, 0x76, 0x89, 0xFF, 0xF0, 0x8F, 0x7F, 
  0x8F, 0xF0, 0xFF, };
