#define icon_radio_width 8
#define icon_radio_height 9
static char icon_radio_bits[] = {
  0xF1, 0xEE, 0xFB, 0x7F, 0x01, 0x7F, 0xFB, 0xEE, 0xF1, };
