#define icon_battery_width 11
#define icon_battery_height 25
static char icon_battery_bits[] = {
  0xFF, 0x07, 0xFF, 0x07, 0x03, 0x06, 0x03, 0x06, 0x03, 0x06, 0x03, 0x06, 
  0x03, 0x06, 0x03, 0x06, 0x03, 0x06, 0x03, 0x06, 0x03, 0x06, 0x03, 0x06, 
  0x03, 0x06, 0x03, 0x06, 0x03, 0x06, 0x03, 0x06, 0x03, 0x06, 0x03, 0x06, 
  0x03, 0x06, 0x03, 0x06, 0x8F, 0x07, 0x8F, 0x07, 0x8F, 0x07, 0xFF, 0x07, 
  0xFF, 0x07, };
