#define icon_battery_frame_width 11
#define icon_battery_frame_height 25
static char icon_battery_frame_bits[] = {
  0x00, 0x00, 0xFE, 0x03, 0xFE, 0x03, 0xFE, 0x03, 0xFE, 0x03, 0xFE, 0x03, 
  0xFE, 0x03, 0xFE, 0x03, 0xFE, 0x03, 0xFE, 0x03, 0xFE, 0x03, 0xFE, 0x03, 
  0xFE, 0x03, 0xFE, 0x03, 0xFE, 0x03, 0xFE, 0x03, 0xFE, 0x03, 0xFE, 0x03, 
  0xFE, 0x03, 0xFE, 0x03, 0xFE, 0x03, 0xF8, 0x00, 0xFB, 0x06, 0xFB, 0x06, 
  0x03, 0x06, };
