#define icon_walk_width 7
#define icon_walk_height 20
static char icon_walk_bits[] = {
  0x00, 0x5F, 0x6F, 0x5F, 0x00, 0x7F, 0x03, 0x6D, 0x6E, 0x6D, 0x03, 0x7F, 
  0x00, 0x3F, 0x3F, 0x7F, 0x00, 0x77, 0x6B, 0x1C, };
