#define icon_light_width 9
#define icon_light_height 11
static char icon_light_bits[] = {
  0x83, 0x01, 0x7D, 0x01, 0xFE, 0x00, 0xFE, 0x00, 0x01, 0x01, 0xFF, 0x01, 
  0xFF, 0x01, 0x55, 0x01, 0x55, 0x01, 0x55, 0x01, 0x55, 0x01, };
