#define icon_brake_width 7
#define icon_brake_height 14
static char icon_brake_bits[] = {
  0x00, 0x36, 0x36, 0x49, 0x7F, 0x00, 0x76, 0x76, 0x09, 0x7F, 0x00, 0x77, 
  0x6B, 0x1C, };
